<svg width="251" height="251" viewBox="0 0 251 251" fill="none" xmlns="http://www.w3.org/2000/svg">
<path opacity="0.5" fill-rule="evenodd" clip-rule="evenodd" d="M115.414 0.0730166C114.16 0.177041 110.92 0.605408 108.214 1.02494C105.508 1.44399 101.176 2.44743 98.5875 3.25461C95.9991 4.06129 91.7995 5.69772 89.2547 6.89008C86.7103 8.08293 82.6065 10.3729 80.1351 11.9794C77.6643 13.5854 73.8715 16.4854 71.7077 18.4236C69.5433 20.3618 66.4401 23.5272 64.8118 25.4575C63.1829 27.3879 60.9476 30.3197 59.8447 31.9723C58.7417 33.6249 56.9943 36.6338 55.9618 38.6584C54.9287 40.6829 53.4357 44.0598 52.6443 46.1629L51.2049 49.9863L46.0848 51.0982C43.2689 51.7101 38.9635 53.0005 36.5179 53.9662C34.0724 54.9319 30.3171 56.7489 28.174 58.0036C26.0304 59.2587 22.4966 61.7553 20.3211 63.5522C18.1451 65.3486 14.9228 68.5949 13.1602 70.7662C11.3976 72.937 9.18666 75.9493 8.24684 77.4596C7.30753 78.9704 5.856 81.7129 5.02156 83.5544C4.18662 85.3959 2.92407 88.842 2.21477 91.212C1.50547 93.582 0.65989 98.0565 0.33564 101.155C-0.12287 105.535 -0.113751 108.059 0.376171 112.5C0.722714 115.642 1.63619 120.334 2.40679 122.926C3.17688 125.518 4.72315 129.532 5.84232 131.845C6.962 134.159 8.79351 137.35 9.91268 138.937C11.0318 140.524 13.106 143.099 14.5226 144.658C15.9387 146.217 18.406 148.601 20.0055 149.957C21.6044 151.312 24.4036 153.369 26.2255 154.528C28.0474 155.686 31.3618 157.424 33.5911 158.39C35.8203 159.355 39.0121 160.528 40.684 160.996C42.3559 161.464 44.9778 162.089 46.5104 162.385L49.2969 162.922L49.4302 179.238L49.5639 206.179H61.4629H73.3624L73.3624 179.593V163.633L81.342 163.769L89.3216 163.904L89.4553 179.728L89.5891 206.179H100.981H112.374L112.374 179.606V163.658H120.48H128.586V179.606V206.179H140.239H151.892L151.892 179.606V163.658H159.998H168.104V179.606L168.104 206.179H179.75H191.396L191.53 179.238L191.663 162.922L194.45 162.385C195.982 162.089 198.604 161.464 200.276 160.996C201.948 160.528 205.14 159.355 207.369 158.39C209.598 157.424 212.913 155.686 214.734 154.528C216.556 153.369 219.356 151.312 220.955 149.957C222.554 148.601 225.021 146.217 226.437 144.658C227.854 143.099 229.928 140.524 231.047 138.937C232.166 137.35 233.998 134.159 235.118 131.845C236.237 129.532 237.783 125.518 238.553 122.926C239.324 120.334 240.237 115.642 240.584 112.5C241.074 108.059 241.083 105.535 240.624 101.155C240.3 98.0565 239.456 93.5742 238.747 91.1938C238.039 88.814 236.737 85.3209 235.853 83.4317C234.97 81.5426 233.517 78.808 232.626 77.3551C231.734 75.9022 229.562 72.937 227.8 70.7662C226.037 68.5949 222.815 65.3486 220.639 63.5522C218.463 61.7553 214.93 59.2587 212.786 58.0036C210.643 56.7489 206.888 54.9319 204.442 53.9662C201.997 53.0005 197.691 51.7101 194.875 51.0982L189.755 49.9863L188.316 46.1629C187.524 44.0598 186.031 40.6829 184.998 38.6584C183.966 36.6338 182.218 33.6249 181.115 31.9723C180.012 30.3197 177.777 27.3879 176.148 25.4575C174.52 23.5272 171.417 20.3618 169.252 18.4236C167.088 16.4854 163.296 13.5854 160.825 11.9794C158.353 10.3729 154.25 8.08293 151.705 6.89008C149.16 5.69772 144.976 4.0662 142.405 3.26491C139.835 2.46362 135.617 1.46852 133.033 1.05438C130.448 0.639756 125.939 0.206973 123.013 0.0921532C120.087 -0.0226666 116.668 -0.0314989 115.414 0.0730166Z" fill="#FF9900"/>
<path d="M108.214 1.02494C110.92 0.605408 114.16 0.177041 115.414 0.0730166C116.668 -0.031499 120.087 -0.0226666 123.013 0.0921532C125.939 0.206973 130.448 0.639756 133.033 1.05438C135.617 1.46852 139.835 2.46362 142.405 3.26491C144.976 4.0662 149.16 5.69772 151.705 6.89008C154.25 8.08293 158.353 10.3729 160.825 11.9794C163.296 13.5854 167.088 16.4854 169.252 18.4236C171.417 20.3618 174.52 23.5272 176.148 25.4575C177.777 27.3879 180.012 30.3197 181.115 31.9723C182.218 33.6249 183.966 36.6338 184.998 38.6584C186.031 40.6829 187.524 44.0598 188.316 46.1629L189.755 49.9863L194.875 51.0982C197.691 51.7101 201.997 53.0005 204.442 53.9662C206.888 54.9319 210.643 56.7489 212.786 58.0036C214.93 59.2587 218.463 61.7553 220.639 63.5522C222.815 65.3486 226.037 68.5949 227.8 70.7662C229.562 72.937 231.734 75.9022 232.626 77.3551C233.517 78.808 234.97 81.5426 235.853 83.4317C236.737 85.3209 238.039 88.814 238.747 91.1938C239.456 93.5742 240.3 98.0565 240.624 101.155C241.083 105.535 241.074 108.059 240.584 112.5C240.237 115.642 239.324 120.334 238.553 122.926C237.783 125.518 236.237 129.532 235.118 131.845C233.998 134.159 232.166 137.35 231.047 138.937C229.928 140.524 227.854 143.099 226.437 144.658C225.021 146.217 222.554 148.601 220.955 149.957C219.356 151.312 216.556 153.369 214.734 154.528C212.913 155.686 209.598 157.424 207.369 158.39C205.14 159.355 201.948 160.528 200.276 160.996C198.604 161.464 195.982 162.089 194.45 162.385L191.663 162.922L168.104 163.658H159.998H151.892H128.586H120.48H112.374L89.3216 163.904L81.342 163.769L73.3624 163.633L49.2969 162.922L46.5104 162.385C44.9778 162.089 42.3559 161.464 40.684 160.996C39.0121 160.528 35.8203 159.355 33.5911 158.39C31.3618 157.424 28.0474 155.686 26.2255 154.528C24.4036 153.369 21.6044 151.312 20.0055 149.957C18.406 148.601 15.9387 146.217 14.5226 144.658C13.106 143.099 11.0318 140.524 9.91268 138.937C8.79351 137.35 6.962 134.159 5.84232 131.845C4.72315 129.532 3.17688 125.518 2.40679 122.926C1.63619 120.334 0.722714 115.642 0.376171 112.5C-0.113751 108.059 -0.12287 105.535 0.33564 101.155C0.65989 98.0565 1.50547 93.582 2.21477 91.212C2.92407 88.842 4.18662 85.3959 5.02156 83.5544C5.856 81.7129 7.30753 78.9704 8.24684 77.4596C9.18666 75.9493 11.3976 72.937 13.1602 70.7662C14.9228 68.5949 18.1451 65.3486 20.3211 63.5522C22.4966 61.7553 26.0304 59.2587 28.174 58.0036C30.3171 56.7489 34.0724 54.9319 36.5179 53.9662C38.9635 53.0005 43.2689 51.7101 46.0848 51.0982L51.2049 49.9863L52.6443 46.1629C53.4357 44.0598 54.9287 40.6829 55.9618 38.6584C56.9943 36.6338 58.7417 33.6249 59.8447 31.9723C60.9476 30.3197 63.1829 27.3879 64.8118 25.4575C66.4401 23.5272 69.5433 20.3618 71.7077 18.4236C73.8715 16.4854 77.6643 13.5854 80.1352 11.9794C82.6065 10.3729 86.7103 8.08293 89.2547 6.89008C91.7996 5.69772 95.9991 4.06129 98.5875 3.25461C101.176 2.44743 105.508 1.44399 108.214 1.02494Z" fill="#FF9900"/>
<path d="M50.2002 251V238.45V216.936H119.225H188.25V238.45V251H119.225H50.2002Z" fill="#FF9900"/>
</svg>
